# xmcd
#
# Track frame offsets:
#	150
#	13702
#	31816
#	45254
#	59113
#	73432
#	91381
#	105818
#	119426
#	140920
#	152478
#	167840
#
# Disc length: 2417 seconds
#
# Revision: 0
# Processed by: cddbd v1.5.2PL0 Copyright (c) Steve Scherf et al.
# Submitted via: EZCDAudioConverter 2.8.1.1
#
DISCID=a1096f0c
DTITLE=Jackson 5 - ICON 2
DYEAR=2010
DGENRE=R&B
TTITLE0=I Want You Back
TTITLE1=Who's Lovin' You
TTITLE2=ABC
TTITLE3=The Love You Save
TTITLE4=I Found That Girl
TTITLE5=I'll Be There
TTITLE6=Mama's Pearl
TTITLE7=Never Can Say Goodbye
TTITLE8=Maybe Tomorrow
TTITLE9=Sugar Daddy
TTITLE10=Got To Be There
TTITLE11=I Wanna Be Where You Are
EXTD=
EXTT0=
EXTT1=
EXTT2=
EXTT3=
EXTT4=
EXTT5=
EXTT6=
EXTT7=
EXTT8=
EXTT9=
EXTT10=
EXTT11=
PLAYORDER=
